<svg width="70" height="16" xmlns="http://www.w3.org/2000/svg"><g fill="none" fill-rule="evenodd"><path d="M6.294 5.963c.57-.2 1.193-.2 1.763 0L14.24 8.13a7.158 7.158 0 0 1-7.095 6.155A7.158 7.158 0 0 1 .052 8.153ZM7.144 0c3.772 0 6.863 2.908 7.142 6.599L8.057 4.414c-.57-.2-1.192-.2-1.763 0L0 6.622C.268 2.92 3.364 0 7.144 0Z" fill="#E62464"></path><g fill-rule="nonzero"><path d="M23.252 11.916v-1.861h-.955c-.747 0-1.066-.334-1.066-1.114V5.457h1.99V3.643h-1.99v-2.18H19.18v2.18h-1.432v1.814h1.352v3.946c0 1.543.828 2.513 2.594 2.513h1.56ZM25.344 2.608c.827 0 1.32-.477 1.32-1.304 0-.78-.493-1.273-1.32-1.273-.876 0-1.321.493-1.321 1.273 0 .827.445 1.304 1.32 1.304Zm1.05 9.308V3.643h-2.132v8.273h2.132ZM31.047 12.06c1.034 0 1.877-.255 2.53-.764.668-.525 1.066-1.177 1.177-1.957H32.67c-.207.636-.748.955-1.623.955-1.193 0-1.798-.732-1.814-1.926h5.633v-.827c0-1.162-.35-2.132-1.035-2.896-.684-.764-1.623-1.146-2.816-1.146-1.273 0-2.26.414-2.944 1.226-.684.811-1.018 1.83-1.018 3.07 0 1.242.35 2.26 1.066 3.071.716.796 1.687 1.194 2.928 1.194Zm-1.798-5.108c.048-1.002.62-1.67 1.766-1.67 1.066 0 1.623.668 1.67 1.67H29.25ZM37.8 11.916V7.334c0-1.161.685-1.893 1.703-1.893s1.527.557 1.527 1.654v4.821h2.132V6.491c0-1.83-1.177-2.992-3.007-2.992-1.034 0-1.814.366-2.355 1.082h-.063l-.16-.938h-1.909v8.273H37.8ZM47.227 12.06c.986 0 1.75-.35 2.275-1.035h.064l.223.891h1.909V.142h-2.132v4.392h-.064c-.525-.684-1.289-1.035-2.275-1.035-1.066 0-1.894.398-2.498 1.194-.605.795-.907 1.83-.907 3.087 0 1.288.302 2.323.907 3.102.62.78 1.448 1.178 2.498 1.178Zm-1.241-4.28c0-1.448.557-2.403 1.83-2.403 1.273 0 1.83.986 1.83 2.403 0 1.416-.573 2.402-1.83 2.402-1.257 0-1.83-.986-1.83-2.402Z" fill="#364A5E"></path><path d="M57.974 8.368c0 1.13-.51 1.703-1.527 1.703-1.035 0-1.544-.573-1.544-1.703V3.643h-2.132v5.06c0 .954.318 1.75.939 2.402.62.636 1.527.955 2.72.955h.017c1.193 0 2.1-.319 2.72-.955.621-.652.94-1.448.94-2.403v-5.06h-2.133v4.726ZM63.47 15.56v-4.535h.064c.525.685 1.289 1.035 2.291 1.035 1.05 0 1.878-.398 2.483-1.194.604-.795.907-1.814.907-3.07 0-1.29-.303-2.324-.923-3.103-.62-.796-1.432-1.194-2.467-1.194-1.002 0-1.766.35-2.29 1.035h-.064l-.223-.891h-1.91V15.56h2.133Zm3.58-7.765c0 1.417-.556 2.387-1.83 2.387-.636 0-1.097-.223-1.4-.652-.286-.446-.429-1.019-.429-1.735 0-.716.143-1.288.446-1.734.302-.461.763-.684 1.384-.684 1.273 0 1.83.97 1.83 2.418Z" fill="#E62464"></path></g></g></svg>